# xmcd
#
# Track frame offsets: 
#        150
#        11280
#        32092
#        43955
#        58427
#        72880
#        90305
#        101487
#        112912
#        129945
#        133322
#        149730
#        162452
#        174575
#        194760
#
# Disc length: 3037 seconds
#
# Revision: 2
# Processed by: cddbd v1.5.2PL0 Copyright (c) Steve Scherf et al.
# Submitted via: ExactAudioCopy v0.99pb4
#
DISCID=dd0bdb0f
DTITLE=Сектор газа - Ночь перед Рожеством
DYEAR=1991
DGENRE=Punk Rock
TTITLE0=Привет, ребята, добрый день
TTITLE1=Ява
TTITLE2=Шары
TTITLE3=Давай-давай
TTITLE4=Белая горячка
TTITLE5=Голубь
TTITLE6=Презерватив
TTITLE7=Презерватив-2
TTITLE8=Щи
TTITLE9=Здравствуйте, детишки
TTITLE10=Снегурочка
TTITLE11=Илья Муромец
TTITLE12=Кума
TTITLE13=Ночь перед Рождеством
TTITLE14=Голубь (remix)
EXTD=YEAR: 1991
EXTT0=
EXTT1=
EXTT2=
EXTT3=
EXTT4=
EXTT5=
EXTT6=
EXTT7=
EXTT8=
EXTT9=
EXTT10=
EXTT11=
EXTT12=
EXTT13=
EXTT14=
PLAYORDER=
